<?xml version="1.0" encoding="UTF-8" standalone="no"?>
<!-- Created with Inkscape (http://www.inkscape.org/) -->

<svg
   width="94mm"
   height="94mm"
   viewBox="0 0 94 94"
   version="1.1"
   id="svg5"
   inkscape:version="1.1.1 (c3084ef, 2021-09-22)"
   xmlns:inkscape="http://www.inkscape.org/namespaces/inkscape"
   xmlns:sodipodi="http://sodipodi.sourceforge.net/DTD/sodipodi-0.dtd"
   xmlns="http://www.w3.org/2000/svg"
   xmlns:svg="http://www.w3.org/2000/svg">
  <sodipodi:namedview
     id="namedview7"
     pagecolor="#ffffff"
     bordercolor="#666666"
     borderopacity="1.0"
     inkscape:pageshadow="2"
     inkscape:pageopacity="0.0"
     inkscape:pagecheckerboard="0"
     inkscape:document-units="mm"
     showgrid="false"
     width="94mm"
     inkscape:showpageshadow="false"
     height="240mm"
     inkscape:zoom="0.34208754"
     inkscape:cx="-32.155512"
     inkscape:cy="489.64075"
     inkscape:window-width="1409"
     inkscape:window-height="955"
     inkscape:window-x="0"
     inkscape:window-y="23"
     inkscape:window-maximized="0"
     inkscape:current-layer="layer1" />
  <defs
     id="defs2">
    <rect
       x="637.26379"
       y="456.02362"
       width="464.7933"
       height="263.09055"
       id="rect3526" />
  </defs>
  <g
     inkscape:label="Layer 1"
     inkscape:groupmode="layer"
     id="layer1">
    <path
       id="path21239"
       style="fill:#7256d5;fill-opacity:1;stroke-width:0.18301"
       d="m 51.996517,91.59329 c 4.82658,-10.25203 9.95959,-23.92094 13.70004,-36.4824 0.76429,-2.56671 1.413522,-4.74544 1.442722,-4.84161 0.0621,-0.20459 3.17638,3.89615 5.55318,7.31224 2.27615,3.27144 4.37432,6.58822 6.4054,10.12564 1.65071,2.87495 4.44883,8.28248 4.44883,8.59761 0,0.31475 -3.3544,3.91637 -5.07087,5.4446 -5.51631,4.91135 -11.23387,8.11868 -18.235602,10.22946 -2.13621,0.644 -5.88884,1.40915 -8.12303,1.65626 l -1.14137,0.12625 z m -14.53496,1.31259 c -5.86721,-1.21844 -12.32336,-3.99642 -17.09901,-7.35743 -1.16847,-0.82234 -1.41829,-1.08462 -1.41813,-1.48886 7.3e-4,-1.98438 0.96893,-12.30415 1.18749,-12.6578 0.30979,-0.50123 0.82355,-0.0993 1.92591,1.50681 4.43498,6.46149 8.77726,11.66786 14.34395,17.19835 1.80086,1.78915 3.24207,3.24761 3.20268,3.24103 -0.0394,-0.007 -1.00369,-0.20552 -2.14289,-0.4421 z m 6.72524,-2.13749 C 38.136167,85.45418 31.593407,78.0711 26.652467,70.98204 l -1.50222,-2.15533 0.64231,-1.04735 c 0.68755,-1.12112 1.2041,-2.79995 1.2041,-3.91344 0,-2.60646 -1.61871,-5.44737 -3.74721,-6.57653 -0.63062,-0.33455 -0.79616,-0.51525 -0.73461,-0.80191 0.59286,-2.76096 1.58004,-6.8374 2.26017,-9.33309 l 0.84907,-3.11559 2.47063,-1.22705 c 5.22365,-2.59434 12.97268,-5.73168 20.239,-8.19412 l 4.22564,-1.432 1.55363,1.67488 c 2.69323,2.9034 5.43561,5.9724 7.40018,8.28151 l 1.89868,2.23166 -1.01121,3.63329 c -3.38743,12.17118 -7.81568,24.63742 -12.76463,35.93452 -1.77104,4.04281 -3.37279,7.50341 -3.47297,7.50341 -0.0371,0 -0.92638,-0.75443 -1.97623,-1.67651 z M 12.659287,78.85642 C 7.8911474,73.60646 4.5943974,67.99803 2.4654374,61.51463 c -0.39548,-1.20439 -0.76805,-2.49969 -0.82793,-2.87845 l -0.10887,-0.68864 2.80573,-1.85053 c 3.46048,-2.28239 6.0990996,-3.91428 6.3290396,-3.91428 0.0954,0 0.40715,0.5559 0.69277,1.23532 0.28561,0.67942 0.94475,2.14645 1.46475,3.26005 l 0.94545,2.02474 -0.5164,0.72041 c -2.15668,3.00865 -1.75721,7.11316 0.95187,9.78051 l 1.06207,1.04571 -0.25553,2.17598 c -0.14054,1.1968 -0.3591,3.47307 -0.48568,5.05839 -0.12658,1.58533 -0.2891,2.88241 -0.36115,2.88241 -0.072,0 -0.74807,-0.67943 -1.50227,-1.50983 z m 72.717502,-9.87173 c -3.72649,-7.03126 -8.42259,-14.17867 -14.44968,-21.99223 l -2.16184,-2.80263 0.87781,-3.64421 c 0.4828,-2.00432 1.05802,-4.43906 1.27828,-5.41054 l 0.40047,-1.76633 0.79544,-0.11928 c 2.42707,-0.36396 5.03709,-2.79802 5.82072,-5.4283 0.0666,-0.22359 0.50494,-0.34721 1.7961,-0.50658 2.27018,-0.28019 7.72888,-0.751167 8.7196,-0.752327 l 0.78926,-9.1e-4 0.56215,1.235317 c 1.71302,3.76438 2.98705,8.14192 3.61554,12.42291 0.45838,3.12227 0.51619,9.83955 0.11088,12.88362 -0.76637,5.75591 -2.72799,11.66978 -5.55021,16.73276 -0.50275,0.90193 -0.98561,1.66207 -1.07302,1.68921 -0.0874,0.0271 -0.77658,-1.11609 -1.5315,-2.54048 z M 16.805077,53.64681 c -1.19216,-2.53076 -1.79105,-4.00023 -1.67685,-4.11443 0.2038,-0.2038 4.42493,-2.47502 4.48615,-2.4138 0.0361,0.0361 -0.25826,1.4168 -0.65416,3.06819 -0.3959,1.65138 -0.8391,3.53782 -0.98488,4.19208 l -0.26506,1.18956 z M 0.34060735,51.5072 c -0.25953,-2.14088 -0.15046,-8.17596 0.1912,-10.57957 0.54743005,-3.85129 1.76614005,-8.54556 2.92200005,-11.25512 0.32717,-0.76696 0.28297,-0.87948 1.04234,2.65365 0.73981,3.44215 2.03328,8.0547 3.37824,12.04683 0.57059,1.69364 1.00939,3.1005 0.97511,3.12636 -0.0343,0.0259 -0.59763,0.36509 -1.25189,0.75386 -1.02859,0.6112 -5.16219,3.22146 -6.61839005,4.17934 l -0.48756,0.32071 z M 12.025887,41.3394 C 9.8645074,34.60224 8.6319074,29.27153 7.7893574,23.017413 l -0.1939,-1.43933 0.85432,-1.21432 c 3.4809696,-4.94775 7.7293096,-9.104 12.6905596,-12.4154705 2.30472,-1.53833 1.82312,-1.6104 4.69847,0.70312 1.39173,1.1198 2.54262,2.0458105 2.55754,2.0577905 0.0149,0.012 -0.10257,0.54938 -0.26108,1.19421 -0.52376,2.13063 0.19636,4.85946 1.70412,6.45761 l 0.62619,0.66373 -1.72163,3.53954 c -2.55133,5.245317 -5.2041,11.855947 -6.68431,16.657147 l -0.37673,1.22198 -2.97068,1.55242 c -1.63387,0.85383 -3.49331,1.84809 -4.13207,2.20946 -0.63877,0.36137 -1.22049,0.65704 -1.29272,0.65704 -0.0722,0 -0.63993,-1.58532 -1.26155,-3.52294 z m 50.25279,-4.75379 c -1.36523,-1.53746 -2.90987,-3.26896 -3.43252,-3.84778 -0.63709,-0.70554 -0.87004,-1.08144 -0.7068,-1.14053 0.13391,-0.0485 1.55836,-0.41942 3.16543,-0.82434 l 2.92195,-0.73621 1.09972,1.0532 c 0.60485,0.57926 1.13324,1.07094 1.17421,1.09263 0.10704,0.0567 -1.4487,6.88689 -1.60732,7.05668 -0.0728,0.078 -1.24943,-1.11619 -2.61467,-2.65365 z m -33.97829,-0.55288 c 0.30962,-0.83075 0.68159,-1.83987 0.82659,-2.2425 0.66047,-1.83391 3.12994,-7.400727 4.42453,-9.974027 l 1.42708,-2.83665 1.27056,-0.1173 c 0.69882,-0.0645 1.62142,-0.25909 2.05024,-0.43239 l 0.77968,-0.3151 0.95892,0.82008 c 1.27017,1.08628 8.55391,8.191667 8.55353,8.344087 -1.7e-4,0.0655 -1.3796,0.58419 -3.06542,1.15268 -5.0142,1.69088 -10.52813,3.88685 -17.19825,6.84936 l -0.59041,0.26223 z m 22.75991,-11.310397 c -1.6093,-1.61539 -4.21125,-4.1336 -5.7821,-5.59603 l -2.8561,-2.65896 0.28053,-0.76356 c 0.432,-1.17585 0.3746,-3.64271 -0.1134,-4.87284 -0.46507,-1.1723405 -0.56944,-0.9411705 1.58486,-3.5101405 1.8008,-2.14743 4.87349,-5.38347 6.03425,-6.35505 l 0.85411,-0.71491 2.01311,0.25923 c 5.36047,0.69027 10.72145,2.38383 15.693092,4.95751 2.30662,1.19407 2.15204,0.71273 1.6022,4.9889005 -0.70031,5.44647 -1.15345,8.05243 -1.40019,8.05243 -0.12872,0 -0.69292,0.17169 -1.25378,0.38154 -1.957782,0.7325 -4.091612,3.27563 -4.407862,5.25338 -0.0671,0.41952 -0.21467,0.87771 -0.32796,1.01819 -0.11329,0.14048 -1.31777,0.52602 -2.67661,0.85675 -1.35885,0.33073 -3.29401,0.83517 -4.30035,1.120977 -1.00634,0.28581 -1.87203,0.51966 -1.92375,0.51966 -0.0517,0 -1.41074,-1.321687 -3.02005,-2.937077 z m 26.159152,-2.57915 c -0.40555,-0.78425 -1.6805,-2.13547 -2.51001,-2.66016 -0.65462,-0.41407 -0.68613,-0.47647 -0.56464,-1.1181 0.0708,-0.37375 0.38635,-2.4805 0.70129,-4.68167 l 0.57262,-4.0021205 1.3646,1.0998705 c 1.77698,1.43224 4.66335,4.30452 6.29457,6.26383 1.22057,1.46607 3.39697,4.43235 3.39697,4.62982 0,0.0497 -0.67942,0.14554 -1.50983,0.21299 -1.87513,0.15233 -6.27793,0.61699 -6.95226,0.73374 -0.41619,0.072 -0.55069,-0.009 -0.79331,-0.4782 z M 29.764097,5.5575725 l -1.7163,-1.4087 0.98426,-0.4345 c 1.68064,-0.74191 5.64433,-1.99486 7.84713,-2.48054 2.18703,-0.4822 6.46451,-1.09768 6.81552,-0.98068 0.1108,0.0369 -0.43969,0.76247 -1.2233,1.6123 -0.78362,0.84983 -1.96396,2.22458 -2.62298,3.05498 -0.65903,0.83041 -1.2467,1.50894 -1.30594,1.50785 -0.0593,-0.001 -0.51199,-0.12462 -1.0061,-0.27451 -0.49411,-0.14989 -1.41192,-0.27254 -2.03959,-0.27254 -1.13699,0 -3.44388,0.58093 -3.65345,0.92002 -0.1799,0.29108 -0.28858,0.22607 -2.07925,-1.24368 z" />
    <text
       xml:space="preserve"
       transform="scale(0.26458333)"
       id="text3524"
       style="font-size:40px;line-height:1.25;font-family:sans-serif;word-spacing:0px;white-space:pre;shape-inside:url(#rect3526)" />
  </g>
</svg>
